<svg width="20" height="17" fill="none" xmlns="http://www.w3.org/2000/svg"><path d="M18.076 7.308V.805c0-.433-.379-.805-.82-.805H2.996c-.599 0-1.072.464-1.072 1.053v6.255A4.16 4.16 0 0 0 0 10.838v5.543c0 .34.284.619.63.619.348 0 .632-.279.632-.62v-1.145h17.476v1.146c0 .34.284.619.631.619.347 0 .631-.279.631-.62v-5.542c0-1.455-.757-2.756-1.924-3.53ZM3.186 1.27h13.628V6.78a4.317 4.317 0 0 0-1.104-.154h-2.177V4.8c0-.991-.82-1.765-1.798-1.765h-3.47c-1.01 0-1.798.805-1.798 1.765v1.827H4.29c-.378 0-.725.062-1.104.154V1.27Zm9.085 3.53v1.827H7.73V4.8c0-.279.22-.527.536-.527h3.47c.284 0 .536.248.536.527ZM4.26 7.865h11.45a3 3 0 0 1 2.966 2.447H1.293A3 3 0 0 1 4.26 7.865Zm14.48 6.131H1.23v-2.415h17.508v2.415Z" fill="#46D0D9"/></svg>
