<svg width="18" height="16" fill="none" xmlns="http://www.w3.org/2000/svg"><path d="M9.284 14.838V13.31c1.117-.323 1.94-1.352 1.94-2.556 0-1.205-.823-2.233-1.94-2.557V.735A.727.727 0 0 0 8.55 0a.727.727 0 0 0-.735.735v7.462C6.7 8.521 5.876 9.55 5.876 10.754c0 1.204.823 2.233 1.94 2.556v1.528c0 .41.323.734.734.734a.727.727 0 0 0 .734-.734Zm-1.939-4.084A1.21 1.21 0 0 1 8.55 9.549c.676 0 1.205.529 1.205 1.205 0 .675-.53 1.204-1.205 1.204a1.21 1.21 0 0 1-1.205-1.204ZM13.692.735V2.32c-1.117.323-1.94 1.352-1.94 2.556 0 1.205.823 2.233 1.94 2.557v7.404c0 .41.323.734.734.734a.727.727 0 0 0 .735-.734V7.434C16.277 7.11 17.1 6.082 17.1 4.877c0-1.204-.823-2.233-1.94-2.556V.735A.727.727 0 0 0 14.427 0a.727.727 0 0 0-.734.735Zm1.939 4.142a1.21 1.21 0 0 1-1.205 1.205 1.192 1.192 0 0 1-1.204-1.205 1.21 1.21 0 0 1 1.204-1.204 1.23 1.23 0 0 1 1.205 1.204ZM3.408 14.838V7.434c1.117-.324 1.94-1.352 1.94-2.557 0-1.204-.823-2.233-1.94-2.556V.735A.727.727 0 0 0 2.674 0a.727.727 0 0 0-.735.735V2.32C.823 2.644 0 3.673 0 4.877 0 6.082.823 7.11 1.94 7.434v7.404c0 .41.322.734.734.734a.727.727 0 0 0 .734-.734ZM1.47 4.878a1.21 1.21 0 0 1 1.205-1.205c.675 0 1.204.529 1.204 1.204 0 .676-.529 1.205-1.204 1.205a1.21 1.21 0 0 1-1.205-1.205Z" fill="#143656"/></svg>