<svg viewBox="0 0 195 126" fill="none" xmlns="http://www.w3.org/2000/svg"><path d="M3.8 116c-.267 0-.507-.093-.72-.28a1.064 1.064 0 0 1-.28-.72V89c0-.293.093-.533.28-.72.213-.187.453-.28.72-.28h18.4c.293 0 .533.093.72.28.187.187.28.427.28.72v4.04c0 .267-.093.507-.28.72a.975.975 0 0 1-.72.28H9.84v5.88H21.4c.293 0 .533.107.72.32.187.187.28.427.28.72v4c0 .267-.093.507-.28.72a.973.973 0 0 1-.72.28H9.84V115a.976.976 0 0 1-.28.72.973.973 0 0 1-.72.28H3.8Zm24.247-23.8a.974.974 0 0 1-.72-.28.975.975 0 0 1-.28-.72v-3.6c0-.293.093-.533.28-.72a.974.974 0 0 1 .72-.28h4.8c.293 0 .533.093.72.28.186.187.28.427.28.72v3.6a.975.975 0 0 1-.28.72.975.975 0 0 1-.72.28h-4.8Zm.04 23.8a.973.973 0 0 1-.72-.28.976.976 0 0 1-.28-.72V96.2c0-.293.093-.533.28-.72a.974.974 0 0 1 .72-.28h4.72c.293 0 .533.093.72.28.186.187.28.427.28.72V115c0 .267-.094.507-.28.72a.973.973 0 0 1-.72.28h-4.72Zm11.445 0a.973.973 0 0 1-.72-.28.976.976 0 0 1-.28-.72V96.2c0-.293.093-.533.28-.72a.974.974 0 0 1 .72-.28h4.6c.293 0 .533.093.72.28.213.187.32.427.32.72v1.52c.72-.88 1.64-1.587 2.76-2.12 1.146-.533 2.44-.8 3.88-.8 2.346 0 4.253.8 5.72 2.4 1.467 1.573 2.2 3.787 2.2 6.64V115c0 .267-.093.507-.28.72a.973.973 0 0 1-.72.28h-5.04c-.267 0-.507-.093-.72-.28a1.064 1.064 0 0 1-.28-.72v-10.92c0-1.253-.307-2.213-.92-2.88-.614-.693-1.493-1.04-2.64-1.04-1.12 0-2 .347-2.64 1.04-.64.667-.96 1.627-.96 2.88V115c0 .267-.093.507-.28.72a.973.973 0 0 1-.72.28h-5Zm32.463.4c-2.613 0-4.653-.813-6.12-2.44-1.44-1.653-2.227-3.973-2.36-6.96l-.04-1.4.04-1.44c.107-2.88.893-5.16 2.36-6.84 1.493-1.68 3.533-2.52 6.12-2.52 2.427 0 4.387.787 5.88 2.36V88.6c0-.293.093-.533.28-.72a.975.975 0 0 1 .72-.28h4.88c.293 0 .533.093.72.28.187.187.28.427.28.72V115c0 .267-.093.507-.28.72a.973.973 0 0 1-.72.28h-4.52c-.267 0-.507-.093-.72-.28a1.064 1.064 0 0 1-.28-.72v-1.28c-1.467 1.787-3.547 2.68-6.24 2.68Zm2.2-5.36c1.2 0 2.093-.373 2.68-1.12.587-.773.92-1.76 1-2.96.027-.347.04-.853.04-1.52 0-.64-.013-1.133-.04-1.48-.053-1.093-.387-2-1-2.72-.613-.72-1.507-1.08-2.68-1.08-1.253 0-2.16.373-2.72 1.12-.533.747-.84 1.773-.92 3.08-.027.267-.04.68-.04 1.24 0 .56.013.973.04 1.24.08 1.307.387 2.333.92 3.08.56.747 1.467 1.12 2.72 1.12Z" fill="#143656"/><path d="M91.75 116c-.267 0-.48-.08-.64-.24-.16-.16-.24-.373-.24-.64v-26.2c0-.267.08-.48.24-.64a.8.8 0 0 1 .64-.28h.72c.293 0 .52.08.68.24.16.16.24.387.24.68v11.68h15.439V88.92c0-.267.08-.48.24-.64a.801.801 0 0 1 .64-.28h.72c.294 0 .52.08.68.24.16.16.24.387.24.68v26.2a.8.8 0 0 1-.28.64c-.16.16-.373.24-.64.24h-.72c-.266 0-.48-.08-.64-.24-.16-.16-.24-.373-.24-.64V103h-15.44v12.12a.8.8 0 0 1-.28.64c-.16.16-.373.24-.64.24h-.72Zm34.527.4c-2.773 0-4.933-.84-6.48-2.52-1.52-1.707-2.32-3.907-2.4-6.6l-.04-1.68.04-1.68c.08-2.693.88-4.88 2.4-6.56 1.547-1.707 3.707-2.56 6.48-2.56 2.774 0 4.92.853 6.44 2.56 1.547 1.68 2.36 3.867 2.44 6.56.027.267.04.827.04 1.68s-.013 1.413-.04 1.68c-.08 2.693-.893 4.893-2.44 6.6-1.52 1.68-3.666 2.52-6.44 2.52Zm0-2.32c1.894 0 3.414-.6 4.56-1.8 1.174-1.227 1.8-2.96 1.88-5.2.027-.267.04-.76.04-1.48s-.013-1.213-.04-1.48c-.08-2.24-.706-3.96-1.88-5.16-1.146-1.227-2.666-1.84-4.56-1.84-1.893 0-3.426.613-4.6 1.84-1.146 1.2-1.76 2.92-1.84 5.16l-.04 1.48.04 1.48c.08 2.24.694 3.973 1.84 5.2 1.174 1.2 2.707 1.8 4.6 1.8Zm15.265 1.92c-.267 0-.48-.08-.64-.24-.16-.16-.24-.373-.24-.64V96.08c0-.267.08-.48.24-.64.16-.16.373-.24.64-.24h.68c.267 0 .48.08.64.24.16.16.24.373.24.64v1.4c.693-.88 1.493-1.547 2.4-2 .933-.453 2.04-.68 3.32-.68 2.987 0 5.12 1.253 6.4 3.76a7.02 7.02 0 0 1 2.72-2.72c1.2-.693 2.56-1.04 4.08-1.04 2.213 0 4.013.76 5.4 2.28 1.387 1.493 2.08 3.627 2.08 6.4v11.64c0 .267-.08.48-.24.64-.16.16-.373.24-.64.24h-.68c-.267 0-.48-.08-.64-.24-.16-.16-.24-.373-.24-.64v-11.24c0-2.427-.507-4.16-1.52-5.2-.987-1.04-2.293-1.56-3.92-1.56-1.44 0-2.693.533-3.76 1.6-1.04 1.04-1.56 2.76-1.56 5.16v11.24c0 .267-.08.48-.24.64-.16.16-.373.24-.64.24h-.68c-.267 0-.48-.08-.64-.24-.16-.16-.24-.373-.24-.64v-11.24c0-2.4-.52-4.12-1.56-5.16-1.04-1.067-2.333-1.6-3.88-1.6-1.44 0-2.693.533-3.76 1.6-1.04 1.04-1.56 2.747-1.56 5.12v11.28c0 .267-.08.48-.24.64-.16.16-.373.24-.64.24h-.68Zm41.957.4c-2.533 0-4.573-.827-6.12-2.48-1.547-1.68-2.427-3.92-2.64-6.72l-.04-1.6.04-1.6c.213-2.773 1.08-5 2.6-6.68 1.547-1.68 3.6-2.52 6.16-2.52 2.773 0 4.933.92 6.48 2.76 1.573 1.84 2.36 4.36 2.36 7.56v.6a.8.8 0 0 1-.28.64c-.16.16-.373.24-.64.24h-14.24v.4a9.207 9.207 0 0 0 .84 3.52 6.964 6.964 0 0 0 2.2 2.6c.933.64 2.027.96 3.28.96 1.467 0 2.653-.28 3.56-.84.933-.587 1.6-1.173 2-1.76.24-.32.413-.52.52-.6.133-.08.36-.12.68-.12h.64c.24 0 .44.067.6.2.16.133.24.307.24.52 0 .56-.36 1.24-1.08 2.04-.693.773-1.667 1.453-2.92 2.04-1.253.56-2.667.84-4.24.84Zm6.4-12.04v-.16c0-2.053-.587-3.747-1.76-5.08-1.147-1.333-2.693-2-4.64-2-1.947 0-3.493.667-4.64 2-1.12 1.333-1.68 3.027-1.68 5.08v.16h12.72Z" fill="#fff"/><g clip-path="url(#a)"><path d="m133.109 67.808-7.726-7.726a15.111 15.111 0 0 0 2.534-8.374c0-8.386-6.823-15.208-15.209-15.208S97.5 43.322 97.5 51.708s6.822 15.209 15.208 15.209c3.094 0 5.968-.94 8.374-2.534l7.726 7.726a3.038 3.038 0 0 0 4.301 0 3.039 3.039 0 0 0 0-4.301Zm-20.401-6.975c-5.031 0-9.125-4.094-9.125-9.125 0-5.03 4.094-9.125 9.125-9.125s9.125 4.094 9.125 9.125-4.094 9.125-9.125 9.125Z" fill="#143656"/><path d="m123.503 28.677-10.795-10.555V6.083a3.041 3.041 0 1 0-6.083 0v6.09L95.064.867a3.04 3.04 0 0 0-4.253 0l-28.44 27.81A4.521 4.521 0 0 0 61 31.937a4.568 4.568 0 0 0 4.563 4.563h4.562v16.73c0 4.19 3.41 7.603 7.604 7.603h10.646a3.04 3.04 0 1 0 0-6.083H77.729c-.836 0-1.52-.681-1.52-1.52V33.457a3.04 3.04 0 0 0-3.042-3.041h-3.872L92.937 7.294l26.311 25.73a3.036 3.036 0 0 0 4.301-.05 3.037 3.037 0 0 0-.046-4.297Z" fill="#fff"/></g><defs><clipPath id="a"><path fill="#fff" transform="translate(61)" d="M0 0h73v73H0z"/></clipPath></defs></svg>
