<svg width="25" height="27" fill="none" xmlns="http://www.w3.org/2000/svg"><path d="M12.493 10.7c-.947 0-1.722.768-1.722 1.697 0 .946.769 1.721 1.697 1.721.947 0 1.722-.768 1.722-1.697 0-.97-.744-1.721-1.697-1.721ZM7.543 10.7c-.943 0-1.722.74-1.722 1.697 0 .943.74 1.721 1.697 1.721.943 0 1.722-.74 1.722-1.697 0-.943-.74-1.721-1.697-1.721ZM17.467 10.7c-.943 0-1.721.74-1.721 1.697 0 .943.74 1.721 1.697 1.721.943 0 1.72-.74 1.72-1.697v-.024c0-.922-.743-1.697-1.696-1.697Z" fill="#46D0D9"/><path d="M12.493.75h-.001C5.982.775.75 6.058.75 12.542c0 3.602 1.674 7.004 4.497 9.231 1.392 1.316 3.01 2.36 4.803 3.034 1.548.623 3.22.948 4.893.948a14.7 14.7 0 0 0 3.316-.374h.002c.423-.103.776-.378.987-.715.21-.336.291-.762.113-1.15a3.598 3.598 0 0 1-.198-.644 9.79 9.79 0 0 0-.137-.571c5.357-3.585 6.834-10.801 3.307-16.218A11.705 11.705 0 0 0 12.493.75Zm5.333 19.96-.007.004-.515.343-.105.07a.803.803 0 0 0-.364.943l.418 1.517c-.762.12-1.537.198-2.31.198-1.415 0-2.829-.264-4.146-.791l-.002-.001a12.627 12.627 0 0 1-4.155-2.641l-.048-.047-.017-.018-.02-.014-.067-.044c-4.27-3.322-5.033-9.483-1.713-13.758 3.322-4.277 9.486-5.041 13.738-1.697l.002.001c4.277 3.322 5.04 9.486 1.696 13.738l-.003.005a8.722 8.722 0 0 1-2.382 2.191Z" fill="#46D0D9"/></svg>
