<svg width="22" height="27" fill="none" xmlns="http://www.w3.org/2000/svg"><path d="M10.982 14.443c1.07.001 2.1-.401 2.863-1.123a3.815 3.815 0 0 0 1.21-2.737v-.004a3.832 3.832 0 0 0-1.175-2.727 4.178 4.178 0 0 0-2.819-1.167h-.003A4.166 4.166 0 0 0 8.18 7.793a3.817 3.817 0 0 0-1.227 2.74v.003a3.836 3.836 0 0 0 1.17 2.731 4.182 4.182 0 0 0 2.816 1.176h.043Zm0 0v-.25.25Zm.349 11.807h.05l.047-.02.111-.047c.447-.185.824-.5 1.077-.902l6.674-8.99c1.528-1.983 2.203-4.452 1.882-6.898a9.005 9.005 0 0 0-1.123-3.482 9.41 9.41 0 0 0-2.437-2.803C14.374.572 10.621.071 6.786 1.657h-.002c-1.961.824-3.6 2.224-4.675 3.999a9.299 9.299 0 0 0-1.3 5.87A9.03 9.03 0 0 0 2.52 16.03v.001c1.481 2 2.965 4 4.453 6l2.458 3.313c.247.37.602.66 1.018.836l.007.003.128.05.044.017H11.33Zm-.285-2.041-.006.009a1.371 1.371 0 0 1-.037.052L11 24.268 11 24.266c-.82-1.11-1.643-2.218-2.467-3.325-1.495-2-2.978-4-4.451-5.998a7.224 7.224 0 0 1-1.36-3.595v-.006a7.494 7.494 0 0 1 1.043-4.737 8.056 8.056 0 0 1 3.78-3.239c3.194-1.32 6.163-.922 8.859 1.189a7.574 7.574 0 0 1 1.954 2.261 7.23 7.23 0 0 1 .892 2.8l.001.007a7.519 7.519 0 0 1-1.521 5.582l-.003.004c-2.228 3-4.455 6-6.68 9Zm-.038-15.666h.093c.535.029 1.04.247 1.414.61.39.38.608.886.611 1.412-.003.266-.06.529-.17.774-.11.245-.269.469-.47.657-.202.188-.44.337-.704.437-.262.1-.543.15-.826.147a2.204 2.204 0 0 1-1.483-.62 1.987 1.987 0 0 1-.606-1.416c.003-.262.06-.522.168-.763a2 2 0 0 1 .465-.648l.002-.001a2.19 2.19 0 0 1 1.506-.59Z" fill="#46D0D9"/></svg>
