<svg width="26" height="26" fill="none" xmlns="http://www.w3.org/2000/svg"><path d="m25.671 24.087-2.846-2.847a5.569 5.569 0 0 0 .933-3.085 5.61 5.61 0 0 0-5.603-5.603 5.61 5.61 0 0 0-5.603 5.603 5.61 5.61 0 0 0 5.603 5.603c1.14 0 2.199-.346 3.085-.933l2.847 2.846a1.12 1.12 0 1 0 1.584-1.584Zm-7.516-2.57a3.366 3.366 0 0 1-3.362-3.362 3.366 3.366 0 0 1 3.362-3.362 3.366 3.366 0 0 1 3.362 3.362 3.366 3.366 0 0 1-3.362 3.362Z" fill="#46D0D9"/><path d="M22.09 10.143 18.277 6.41V2.152a1.075 1.075 0 1 0-2.15 0v2.154l-4.087-4a1.074 1.074 0 0 0-1.503 0L.485 10.144a1.615 1.615 0 0 0 1.128 2.767h1.612v5.918a2.692 2.692 0 0 0 2.688 2.69h3.762a1.075 1.075 0 0 0 0-2.152H5.913a.539.539 0 0 1-.538-.538v-6.993c0-.594-.48-1.076-1.075-1.076H2.932l8.356-8.18 9.299 9.102a1.075 1.075 0 0 0 1.504-1.537Z" fill="#46D0D9"/></svg>