<svg width="21" height="20" fill="none" xmlns="http://www.w3.org/2000/svg"><path d="M4.44 9.065H1.475A.575.575 0 0 0 .9 9.64v1.425a5.801 5.801 0 0 0 5.242 5.771A2.832 2.832 0 0 0 8.911 19.1h3.231a2.833 2.833 0 0 0 2.768-2.264 5.802 5.802 0 0 0 5.243-5.77V9.64a.575.575 0 0 0-.575-.575H5.59V2.947a1.468 1.468 0 0 1 2.912 0v1.139H9.652V2.93a2.618 2.618 0 0 0-5.212 0V9.065Zm7.702 8.885H8.91a1.682 1.682 0 0 1-1.572-1.083h6.374a1.682 1.682 0 0 1-1.571 1.083Zm6.86-6.885a4.651 4.651 0 0 1-4.65 4.652h-7.65a4.651 4.651 0 0 1-4.652-4.652v-.85h16.953v.85Z" fill="#46D0D9" stroke="#46D0D9" stroke-width=".2"/></svg>